# xmcd
#
# Track frame offsets: 
#        150
#        12375
#        26305
#        36765
#        50470
#        61928
#        74085
#        85200
#        98468
#        110630
#        131038
#        140863
#        155283
#        166010
#
# Disc length: 2374 seconds
#
# Revision: 3
# Processed by: cddbd v1.5.2PL0 Copyright (c) Steve Scherf et al.
# Submitted via: ExactAudioCopy v0.99pb4
#
DISCID=b809440e
DTITLE=CREEDENCE CLEARWATER REVIVAL  -  MORE CREEDENCE GOLD
DYEAR=1973
DGENRE=Blues
TTITLE0=Hey tonight
TTITLE1=Run through the jungle
TTITLE2=Fortunate son
TTITLE3=Bootleg
TTITLE4=Lookin' out my back door
TTITLE5=Molina
TTITLE6=Who'll stop the rain
TTITLE7=Sweet hitch-hiker
TTITLE8=Good Golly miss Molly
TTITLE9=I put a spell on you
TTITLE10=Don't look now
TTITLE11=Lodi
TTITLE12=Porterville 
TTITLE13=Up around the bend
EXTD=
EXTT0=
EXTT1=
EXTT2=
EXTT3=
EXTT4=
EXTT5=
EXTT6=
EXTT7=
EXTT8=
EXTT9=
EXTT10=
EXTT11=
EXTT12=
EXTT13=
PLAYORDER=
